<svg width="1488" height="311" viewBox="0 0 1488 311" fill="none" xmlns="http://www.w3.org/2000/svg">
<g clip-path="url(#clip0_879_3072)">
<path d="M58.0887 261.593C51.3463 261.593 44.8632 260.383 38.6394 257.963C32.5885 255.542 27.2291 251.739 22.5612 246.552C18.0663 241.366 14.4357 234.796 11.6696 226.844C9.07636 218.891 7.77974 209.296 7.77974 198.059C7.77974 193.045 8.12551 187.513 8.81704 181.462C9.50857 175.238 10.7188 169.014 12.4476 162.791C14.1764 156.567 16.5968 150.516 19.7087 144.638C22.8206 138.76 26.7104 133.573 31.3783 129.078C36.219 124.41 41.9242 120.694 48.4937 117.927C55.2362 115.161 63.1023 113.778 72.0923 113.778C80.7364 113.778 87.6517 115.334 92.8382 118.446C98.1976 121.385 101.569 126.572 102.952 134.005C103.298 127.263 103.643 121.385 103.989 116.371C104.335 111.358 104.594 106.69 104.767 102.368C105.113 98.0458 105.459 93.7237 105.804 89.4017C106.15 85.0796 106.496 80.1524 106.842 74.6201C107.015 70.8167 107.447 68.5692 108.138 67.8777C108.484 67.5319 108.916 67.3591 109.435 67.3591C109.954 67.1862 110.905 67.0997 112.288 67.0997H122.401C127.588 67.0997 131.91 67.7048 135.367 68.915C138.825 70.1252 141.591 71.7676 143.666 73.8422C145.74 75.9168 147.21 78.3371 148.074 81.1033C148.939 83.6965 149.371 86.4626 149.371 89.4017C149.371 89.4017 149.198 91.5627 148.852 95.8848C148.507 100.207 148.074 105.998 147.556 113.26C147.037 120.348 146.432 128.473 145.74 137.636C145.049 146.799 144.357 156.307 143.666 166.162C142.974 175.843 142.283 185.525 141.591 195.206C140.9 204.715 140.208 213.532 139.517 221.657C138.825 229.61 138.22 236.525 137.701 242.403C137.356 248.108 137.096 251.912 136.923 253.814C136.578 255.888 136.145 257.271 135.627 257.963C135.108 258.654 133.639 259 131.218 259H121.883C118.252 259 114.794 258.741 111.51 258.222C108.398 257.53 105.632 256.493 103.211 255.11C100.964 253.554 99.1485 251.566 97.7654 249.146C96.5552 246.552 95.9501 243.268 95.9501 239.291C92.8382 245.861 88.084 251.22 81.6873 255.369C75.4635 259.519 67.5973 261.593 58.0887 261.593ZM80.65 148.268C71.8329 148.268 65.2634 152.158 60.9413 159.938C56.7921 167.545 54.7175 177.831 54.7175 190.798C54.7175 195.293 54.9768 199.701 55.4955 204.023C56.187 208.345 57.3108 212.235 58.8667 215.693C60.4227 219.15 62.4973 221.917 65.0905 223.991C67.8566 226.066 71.3143 227.103 75.4635 227.103C82.8975 227.103 89.1213 223.473 94.1349 216.211C99.1485 208.95 101.655 197.54 101.655 181.981C101.655 177.658 101.396 173.509 100.877 169.533C100.359 165.384 99.3214 161.753 97.7654 158.641C96.2095 155.529 94.0484 153.023 91.2823 151.121C88.5162 149.219 84.9721 148.268 80.65 148.268ZM217.936 138.414C217.936 142.045 217.59 147.145 216.899 153.714C216.38 160.284 215.775 167.113 215.083 174.201C214.565 181.289 213.96 187.945 213.268 194.169C212.75 200.393 212.49 204.888 212.49 207.654C212.49 213.705 213.96 218.459 216.899 221.917C220.011 225.201 224.246 226.844 229.606 226.844C234.274 226.844 238.163 225.028 241.275 221.398C244.56 217.594 247.153 212.754 249.055 206.876C251.13 200.825 252.772 193.996 253.982 186.389C255.192 178.782 256.057 171.089 256.575 163.309C257.267 155.529 257.786 148.009 258.131 140.748C258.65 133.314 259.169 126.917 259.687 121.558C259.86 120.175 260.379 118.965 261.243 117.927C262.108 116.89 263.491 116.371 265.392 116.371H274.728C280.088 116.371 284.41 116.977 287.694 118.187C291.152 119.224 293.832 120.78 295.733 122.855C297.808 124.929 299.191 127.522 299.883 130.634C300.747 133.573 301.179 137.031 301.179 141.007C301.179 143.601 301.006 147.317 300.661 152.158C300.488 156.826 300.056 163.396 299.364 171.867C298.672 180.165 297.808 190.798 296.771 203.764C295.906 216.557 294.783 232.462 293.4 251.48C293.054 255.11 292.622 257.271 292.103 257.963C291.757 258.654 290.374 259 287.954 259H277.84C272.654 259 268.331 258.395 264.874 257.185C261.589 255.975 258.909 254.419 256.835 252.517C254.76 250.615 253.291 248.368 252.426 245.774C251.562 243.181 251.043 240.502 250.87 237.735C248.277 242.23 245.338 246.034 242.053 249.146C238.941 252.258 235.657 254.764 232.199 256.666C228.741 258.395 225.197 259.605 221.567 260.297C217.936 261.161 214.392 261.593 210.934 261.593C204.365 261.593 198.487 260.556 193.3 258.481C188.114 256.234 183.705 253.295 180.075 249.664C176.617 246.034 173.937 241.712 172.036 236.698C170.134 231.684 169.183 226.325 169.183 220.62C169.183 218.372 169.269 214.742 169.442 209.728C169.788 204.542 170.134 198.75 170.48 192.354C170.998 185.957 171.517 179.214 172.036 172.126C172.554 164.865 172.986 158.036 173.332 151.64C173.851 145.243 174.283 139.624 174.629 134.783C175.147 129.943 175.493 126.485 175.666 124.41C176.012 121.299 176.703 119.224 177.741 118.187C178.778 116.977 180.507 116.371 182.927 116.371H191.226C196.585 116.371 200.994 116.89 204.451 117.927C207.909 118.965 210.589 120.434 212.49 122.336C214.565 124.238 215.948 126.572 216.639 129.338C217.504 131.931 217.936 134.956 217.936 138.414ZM381.987 261.593C370.058 261.593 360.118 259.951 352.165 256.666C344.385 253.208 338.161 248.541 333.494 242.663C328.826 236.785 325.541 229.956 323.639 222.176C321.738 214.223 320.787 205.752 320.787 196.762C320.787 186.389 321.997 176.275 324.417 166.421C327.01 156.394 331.333 147.49 337.383 139.711C343.434 131.931 351.387 125.707 361.241 121.039C371.269 116.199 383.716 113.778 398.584 113.778C420.367 113.778 435.927 119.138 445.262 129.856C454.771 140.402 459.525 155.27 459.525 174.46C459.525 179.82 459.093 185.784 458.229 192.354C457.537 198.75 456.068 205.147 453.82 211.544C451.746 217.94 448.807 224.164 445.003 230.215C441.373 236.266 436.705 241.625 431 246.293C425.295 250.961 418.379 254.678 410.254 257.444C402.301 260.21 392.879 261.593 381.987 261.593ZM394.176 148.268C387.606 148.268 382.333 149.997 378.357 153.455C374.553 156.74 371.614 160.802 369.54 165.643C367.638 170.311 366.341 175.325 365.65 180.684C365.131 185.87 364.872 190.279 364.872 193.91C364.872 205.32 366.687 213.705 370.318 219.064C373.948 224.423 379.135 227.103 385.877 227.103C391.928 227.103 396.855 225.201 400.659 221.398C404.635 217.594 407.66 213.013 409.735 207.654C411.982 202.294 413.452 196.676 414.144 190.798C415.008 184.92 415.44 179.992 415.44 176.016C415.44 167.372 413.798 160.63 410.513 155.789C407.401 150.775 401.955 148.268 394.176 148.268ZM523.749 212.322C523.23 220.274 522.625 227.881 521.933 235.142C521.242 242.23 520.723 248.454 520.377 253.814C520.205 255.888 519.772 257.271 519.081 257.963C518.389 258.654 516.92 259 514.672 259H505.337C499.977 259 495.569 258.481 492.111 257.444C488.826 256.234 486.147 254.591 484.072 252.517C482.17 250.442 480.787 247.935 479.923 244.996C479.231 241.885 478.886 238.34 478.886 234.364C478.886 231.771 478.972 228.14 479.145 223.473C479.491 218.632 480.009 212.062 480.701 203.764C481.392 195.293 482.17 184.66 483.035 171.867C484.072 158.901 485.282 142.909 486.665 123.892C486.838 120.088 487.27 117.841 487.962 117.149C488.481 116.631 489.864 116.371 492.111 116.371H502.225C507.411 116.371 511.647 116.977 514.932 118.187C518.216 119.397 520.896 120.953 522.971 122.855C525.045 124.756 526.515 127.004 527.379 129.597C528.244 132.19 528.762 134.87 528.935 137.636C533.949 128.3 539.654 121.99 546.051 118.705C552.447 115.421 559.968 113.778 568.612 113.778C573.28 113.778 577.775 114.21 582.097 115.075C586.419 115.939 590.309 117.409 593.766 119.483C597.224 121.558 600.163 124.324 602.583 127.782C605.004 131.066 606.733 135.302 607.77 140.489C613.129 130.461 619.007 123.546 625.404 119.743C631.801 115.766 639.84 113.778 649.521 113.778C654.881 113.778 659.981 114.383 664.821 115.593C669.835 116.631 674.157 118.532 677.788 121.299C681.418 124.065 684.271 127.868 686.345 132.709C688.593 137.377 689.717 143.255 689.717 150.343C689.717 155.702 689.457 162.272 688.939 170.052C688.42 177.831 687.815 186.303 687.123 195.465C686.432 204.455 685.654 213.791 684.789 223.473C683.925 232.981 683.233 242.144 682.715 250.961C682.542 252.863 682.369 254.332 682.196 255.369C682.023 256.407 681.677 257.185 681.159 257.703C680.813 258.222 680.208 258.568 679.344 258.741C678.479 258.914 677.269 259 675.713 259H667.415C661.882 259 657.387 258.481 653.93 257.444C650.472 256.407 647.792 254.937 645.891 253.036C643.989 251.134 642.606 248.8 641.741 246.034C641.05 243.095 640.704 239.81 640.704 236.179C640.704 233.932 640.791 230.734 640.963 226.584C641.309 222.435 641.655 217.94 642.001 213.1C642.519 208.259 642.952 203.245 643.297 198.059C643.816 192.872 644.248 188.118 644.594 183.796C645.113 179.301 645.458 175.411 645.631 172.126C645.977 168.841 646.15 166.68 646.15 165.643C646.15 161.148 645.199 157.172 643.297 153.714C641.569 150.257 638.111 148.528 632.924 148.528C628.429 148.528 624.54 149.997 621.255 152.936C617.97 155.875 615.204 159.938 612.956 165.124C610.709 170.311 608.894 176.448 607.511 183.537C606.128 190.625 605.177 198.318 604.658 206.616C604.312 211.976 603.88 218.113 603.361 225.028C602.843 231.944 602.238 240.588 601.546 250.961C601.373 252.863 601.2 254.332 601.027 255.369C600.855 256.407 600.509 257.185 599.99 257.703C599.644 258.222 599.039 258.568 598.175 258.741C597.31 258.914 596.1 259 594.544 259H586.246C580.714 259 576.219 258.481 572.761 257.444C569.303 256.407 566.624 254.937 564.722 253.036C562.82 251.134 561.437 248.8 560.573 246.034C559.881 243.095 559.536 239.81 559.536 236.179C559.536 232.722 559.795 227.708 560.313 221.139C561.005 214.396 561.61 207.481 562.129 200.393C562.82 193.132 563.425 186.303 563.944 179.906C564.636 173.336 564.981 168.582 564.981 165.643C564.981 161.148 564.03 157.172 562.129 153.714C560.4 150.257 556.942 148.528 551.756 148.528C547.088 148.528 543.112 150.257 539.827 153.714C536.542 157.172 533.776 161.84 531.528 167.718C529.454 173.423 527.725 180.165 526.342 187.945C525.132 195.725 524.267 203.85 523.749 212.322ZM770.974 261.593C759.045 261.593 749.105 259.951 741.152 256.666C733.372 253.208 727.148 248.541 722.481 242.663C717.813 236.785 714.528 229.956 712.626 222.176C710.725 214.223 709.774 205.752 709.774 196.762C709.774 186.389 710.984 176.275 713.404 166.421C715.997 156.394 720.32 147.49 726.37 139.711C732.421 131.931 740.374 125.707 750.228 121.039C760.256 116.199 772.703 113.778 787.571 113.778C809.354 113.778 824.914 119.138 834.249 129.856C843.758 140.402 848.512 155.27 848.512 174.46C848.512 179.82 848.08 185.784 847.216 192.354C846.524 198.75 845.055 205.147 842.807 211.544C840.733 217.94 837.794 224.164 833.99 230.215C830.36 236.266 825.692 241.625 819.987 246.293C814.282 250.961 807.366 254.678 799.241 257.444C791.288 260.21 781.866 261.593 770.974 261.593ZM783.163 148.268C776.593 148.268 771.32 149.997 767.344 153.455C763.54 156.74 760.601 160.802 758.527 165.643C756.625 170.311 755.328 175.325 754.637 180.684C754.118 185.87 753.859 190.279 753.859 193.91C753.859 205.32 755.674 213.705 759.305 219.064C762.935 224.423 768.122 227.103 774.864 227.103C780.915 227.103 785.842 225.201 789.646 221.398C793.622 217.594 796.647 213.013 798.722 207.654C800.969 202.294 802.439 196.676 803.131 190.798C803.995 184.92 804.427 179.992 804.427 176.016C804.427 167.372 802.785 160.63 799.5 155.789C796.388 150.775 790.942 148.268 783.163 148.268ZM956.302 236.179C956.302 232.376 956.562 227.449 957.08 221.398C957.772 215.174 958.377 208.691 958.896 201.949C959.587 195.033 960.192 188.377 960.711 181.981C961.402 175.584 961.748 170.225 961.748 165.902C961.748 161.407 960.624 157.431 958.377 153.973C956.302 150.343 952.153 148.528 945.929 148.528C939.878 148.528 934.865 149.997 930.888 152.936C926.912 155.875 923.541 161.235 920.775 169.014C918.182 176.794 916.02 187.513 914.292 201.171C912.563 214.828 910.92 232.376 909.364 253.814C909.192 255.888 908.759 257.271 908.068 257.963C907.376 258.654 905.907 259 903.659 259H894.324C888.964 259 884.556 258.481 881.098 257.444C877.813 256.234 875.134 254.591 873.059 252.517C871.157 250.442 869.774 247.935 868.91 244.996C868.218 241.885 867.873 238.34 867.873 234.364C867.873 231.771 867.959 228.14 868.132 223.473C868.478 218.632 868.996 212.062 869.688 203.764C870.379 195.293 871.157 184.66 872.022 171.867C873.059 158.901 874.269 142.909 875.652 123.892C875.825 120.088 876.257 117.841 876.949 117.149C877.468 116.631 878.851 116.371 881.098 116.371H891.212C896.398 116.371 900.634 116.977 903.919 118.187C907.376 119.397 910.142 121.039 912.217 123.114C914.292 125.016 915.761 127.35 916.626 130.116C917.49 132.709 918.009 135.389 918.182 138.155C923.541 128.992 929.678 122.682 936.594 119.224C943.509 115.593 952.153 113.778 962.526 113.778C969.787 113.778 976.097 114.556 981.457 116.112C986.816 117.668 991.225 120.348 994.682 124.151C998.313 127.782 1000.99 132.622 1002.72 138.673C1004.45 144.551 1005.31 151.899 1005.31 160.716C1005.31 163.482 1005.14 167.458 1004.8 172.645C1004.45 177.831 1004.02 183.537 1003.5 189.76C1002.98 195.811 1002.38 202.208 1001.68 208.95C1001.17 215.52 1000.65 221.657 1000.13 227.362C999.609 233.068 999.177 238.081 998.832 242.403C998.486 246.725 998.313 249.578 998.313 250.961C998.313 254.764 997.881 257.098 997.016 257.963C996.152 258.654 994.25 259 991.311 259H983.013C977.48 259 972.985 258.481 969.528 257.444C966.07 256.407 963.39 254.937 961.489 253.036C959.587 251.134 958.204 248.8 957.34 246.034C956.648 243.095 956.302 239.81 956.302 236.179ZM1113.23 228.4C1108.91 236.179 1103.64 241.971 1097.41 245.774C1091.19 249.405 1083.41 251.22 1074.07 251.22C1066.98 251.22 1060.5 250.097 1054.62 247.849C1048.74 245.602 1043.73 242.057 1039.58 237.217C1035.43 232.376 1032.15 226.325 1029.73 219.064C1027.48 211.63 1026.36 202.813 1026.36 192.613C1026.36 184.314 1027.22 175.584 1028.95 166.421C1030.68 157.085 1033.79 148.528 1038.29 140.748C1042.95 132.968 1049.26 126.572 1057.22 121.558C1065.17 116.371 1075.37 113.778 1087.82 113.778C1093 113.778 1097.41 114.383 1101.04 115.593C1104.85 116.631 1108.04 118.1 1110.64 120.002C1113.4 121.904 1115.56 124.151 1117.12 126.744C1118.85 129.338 1120.15 132.104 1121.01 135.043C1121.01 135.216 1121.01 134.611 1121.01 133.228C1121.18 131.672 1121.36 129.943 1121.53 128.041C1121.7 126.139 1121.79 124.324 1121.79 122.595C1121.96 120.694 1122.05 119.483 1122.05 118.965C1122.22 117.236 1123.34 116.371 1125.42 116.371H1137.35C1146.34 116.371 1152.82 118.273 1156.8 122.077C1160.95 125.707 1163.02 132.709 1163.02 143.082C1163.02 144.465 1162.93 147.663 1162.76 152.677C1162.59 157.518 1162.24 163.396 1161.72 170.311C1161.38 177.226 1160.86 184.92 1160.17 193.391C1159.48 201.689 1158.7 210.074 1157.83 218.545C1156.97 227.017 1156.02 235.142 1154.98 242.922C1153.94 250.702 1152.82 257.53 1151.61 263.409C1150.4 269.287 1148.33 274.992 1145.39 280.524C1142.45 286.056 1138.3 290.983 1132.94 295.305C1127.58 299.628 1120.66 303.085 1112.19 305.678C1103.89 308.272 1093.69 309.568 1081.59 309.568C1072.43 309.568 1064.39 308.704 1057.48 306.975C1050.73 305.246 1045.11 302.912 1040.62 299.973C1036.12 297.207 1032.67 294.009 1030.25 290.378C1028 286.748 1026.88 283.117 1026.88 279.487C1026.88 276.202 1027.57 273.349 1028.95 270.929C1030.33 268.509 1032.15 266.52 1034.4 264.964C1036.64 263.409 1039.06 262.198 1041.66 261.334C1044.42 260.642 1047.02 260.297 1049.44 260.297C1052.38 260.297 1054.54 261.161 1055.92 262.89C1057.3 264.619 1058.86 266.52 1060.59 268.595C1062.32 270.842 1064.74 272.831 1067.85 274.559C1070.96 276.288 1075.8 277.153 1082.37 277.153C1093.78 277.153 1101.73 272.917 1106.23 264.446C1110.9 256.147 1113.23 244.132 1113.23 228.4ZM1091.45 216.73C1097.67 216.73 1102.51 215.261 1105.97 212.322C1109.6 209.383 1112.37 205.838 1114.27 201.689C1116.17 197.54 1117.38 193.218 1117.9 188.723C1118.42 184.228 1118.68 180.338 1118.68 177.053C1118.68 166.68 1117.03 159.333 1113.75 155.011C1110.64 150.516 1105.88 148.268 1099.49 148.268C1093.09 148.268 1088.08 149.997 1084.45 153.455C1080.81 156.913 1078.05 161.062 1076.15 165.902C1074.42 170.57 1073.29 175.325 1072.78 180.165C1072.26 184.833 1072 188.464 1072 191.057C1072 199.701 1073.47 206.184 1076.41 210.506C1079.35 214.655 1084.36 216.73 1091.45 216.73ZM1270.75 228.4C1266.43 236.179 1261.15 241.971 1254.93 245.774C1248.71 249.405 1240.93 251.22 1231.59 251.22C1224.5 251.22 1218.02 250.097 1212.14 247.849C1206.26 245.602 1201.25 242.057 1197.1 237.217C1192.95 232.376 1189.67 226.325 1187.25 219.064C1185 211.63 1183.88 202.813 1183.88 192.613C1183.88 184.314 1184.74 175.584 1186.47 166.421C1188.2 157.085 1191.31 148.528 1195.8 140.748C1200.47 132.968 1206.78 126.572 1214.74 121.558C1222.69 116.371 1232.89 113.778 1245.34 113.778C1250.52 113.778 1254.93 114.383 1258.56 115.593C1262.36 116.631 1265.56 118.1 1268.16 120.002C1270.92 121.904 1273.08 124.151 1274.64 126.744C1276.37 129.338 1277.67 132.104 1278.53 135.043C1278.53 135.216 1278.53 134.611 1278.53 133.228C1278.7 131.672 1278.88 129.943 1279.05 128.041C1279.22 126.139 1279.31 124.324 1279.31 122.595C1279.48 120.694 1279.57 119.483 1279.57 118.965C1279.74 117.236 1280.86 116.371 1282.94 116.371H1294.87C1303.86 116.371 1310.34 118.273 1314.32 122.077C1318.47 125.707 1320.54 132.709 1320.54 143.082C1320.54 144.465 1320.45 147.663 1320.28 152.677C1320.11 157.518 1319.76 163.396 1319.24 170.311C1318.9 177.226 1318.38 184.92 1317.69 193.391C1317 201.689 1316.22 210.074 1315.35 218.545C1314.49 227.017 1313.54 235.142 1312.5 242.922C1311.46 250.702 1310.34 257.53 1309.13 263.409C1307.92 269.287 1305.84 274.992 1302.91 280.524C1299.97 286.056 1295.82 290.983 1290.46 295.305C1285.1 299.628 1278.18 303.085 1269.71 305.678C1261.41 308.272 1251.21 309.568 1239.11 309.568C1229.95 309.568 1221.91 308.704 1214.99 306.975C1208.25 305.246 1202.63 302.912 1198.14 299.973C1193.64 297.207 1190.19 294.009 1187.77 290.378C1185.52 286.748 1184.39 283.117 1184.39 279.487C1184.39 276.202 1185.09 273.349 1186.47 270.929C1187.85 268.509 1189.67 266.52 1191.92 264.964C1194.16 263.409 1196.58 262.198 1199.18 261.334C1201.94 260.642 1204.54 260.297 1206.96 260.297C1209.89 260.297 1212.06 261.161 1213.44 262.89C1214.82 264.619 1216.38 266.52 1218.11 268.595C1219.84 270.842 1222.26 272.831 1225.37 274.559C1228.48 276.288 1233.32 277.153 1239.89 277.153C1251.3 277.153 1259.25 272.917 1263.75 264.446C1268.42 256.147 1270.75 244.132 1270.75 228.4ZM1248.97 216.73C1255.19 216.73 1260.03 215.261 1263.49 212.322C1267.12 209.383 1269.89 205.838 1271.79 201.689C1273.69 197.54 1274.9 193.218 1275.42 188.723C1275.94 184.228 1276.2 180.338 1276.2 177.053C1276.2 166.68 1274.55 159.333 1271.27 155.011C1268.16 150.516 1263.4 148.268 1257.01 148.268C1250.61 148.268 1245.6 149.997 1241.96 153.455C1238.33 156.913 1235.57 161.062 1233.67 165.902C1231.94 170.57 1230.81 175.325 1230.3 180.165C1229.78 184.833 1229.52 188.464 1229.52 191.057C1229.52 199.701 1230.99 206.184 1233.93 210.506C1236.86 214.655 1241.88 216.73 1248.97 216.73ZM1401.56 261.593C1389.63 261.593 1379.69 259.951 1371.74 256.666C1363.96 253.208 1357.73 248.541 1353.06 242.663C1348.4 236.785 1345.11 229.956 1343.21 222.176C1341.31 214.223 1340.36 205.752 1340.36 196.762C1340.36 186.389 1341.57 176.275 1343.99 166.421C1346.58 156.394 1350.9 147.49 1356.95 139.711C1363.01 131.931 1370.96 125.707 1380.81 121.039C1390.84 116.199 1403.29 113.778 1418.16 113.778C1439.94 113.778 1455.5 119.138 1464.83 129.856C1474.34 140.402 1479.1 155.27 1479.1 174.46C1479.1 179.82 1478.66 185.784 1477.8 192.354C1477.11 198.75 1475.64 205.147 1473.39 211.544C1471.32 217.94 1468.38 224.164 1464.57 230.215C1460.94 236.266 1456.28 241.625 1450.57 246.293C1444.87 250.961 1437.95 254.678 1429.83 257.444C1421.87 260.21 1412.45 261.593 1401.56 261.593ZM1413.75 148.268C1407.18 148.268 1401.9 149.997 1397.93 153.455C1394.12 156.74 1391.19 160.802 1389.11 165.643C1387.21 170.311 1385.91 175.325 1385.22 180.684C1384.7 185.87 1384.44 190.279 1384.44 193.91C1384.44 205.32 1386.26 213.705 1389.89 219.064C1393.52 224.423 1398.71 227.103 1405.45 227.103C1411.5 227.103 1416.43 225.201 1420.23 221.398C1424.21 217.594 1427.23 213.013 1429.31 207.654C1431.55 202.294 1433.02 196.676 1433.71 190.798C1434.58 184.92 1435.01 179.992 1435.01 176.016C1435.01 167.372 1433.37 160.63 1430.08 155.789C1426.97 150.775 1421.53 148.268 1413.75 148.268Z" fill="#AD46FF"/>
</g>
<defs>
<clipPath id="clip0_879_3072">
<rect width="1488" height="311" fill="white"/>
</clipPath>
</defs>
</svg>
